<?xml version="1.0" encoding="UTF-8" standalone="no"?><svg xmlns="http://www.w3.org/2000/svg" xmlns:xlink="http://www.w3.org/1999/xlink" contentStyleType="text/css" height="474px" preserveAspectRatio="none" style="width:1771px;height:474px;background:#FFFFFF;" version="1.1" viewBox="0 0 1771 474" width="1771px" zoomAndPan="magnify"><defs/><g><!--MD5=[79a439086b036a57b90a01d7b2f8bbd1]
entity admin--><g id="elem_admin"><polygon fill="#F1F1F1" points="74.5442,287.9459,73.3715,289.5482,71.9845,291.8951,70.0008,293.4767,67.9163,294.3415,66.2542,294.4166,64.118,293.3349,62.1023,292.6283,60.5724,291.1936,59.7699,289.5511,59.2939,288.2433,58.8277,286.5351,58.0709,285.0651,58.6525,283.6298,59.162,282.0576,61.074,280.8142,62.4192,279.2008,64.0843,278.665,66.0637,278.2037,68.6021,278.4778,69.9924,279.1335,71.6089,279.4307,73.5743,281.4443,74.2595,283.5701,74.5571,285.0206,74.22,287.4108" style="stroke:#181818;stroke-width:0.5;"/><path d="M66.5,294 L66.6868,294 L66.1317,299.4 L66.6718,304.8 L66.8553,310.2 L65.8659,315.6 L66.5,321 M53.5,302 L53.5,301.9309 L58.7,301.6209 L63.9,301.6591 L69.1,301.9394 L74.3,301.3854 L79.5,302 M66.5,321 L66.8719,321.3223 L63.4766,323.6331 L61.1672,326.8849 L58.9901,330.2515 L56.0424,332.9501 L53.5,336 M66.5,321 L66.5458,321.0397 L69.0785,323.9814 L71.8199,327.1039 L74.4606,330.1392 L77.2934,333.341 L79.5,336 " fill="none" style="stroke:#181818;stroke-width:0.5;"/><text fill="#000000" font-family="sans-serif" font-size="14" lengthAdjust="spacing" textLength="121" x="6" y="350.4951">Администратор</text></g><!--MD5=[047b2bc0105c3139e3e48092a86620e4]
entity creator--><g id="elem_creator"><polygon fill="#F1F1F1" points="273.5442,151.9459,272.3715,153.5482,270.9845,155.8951,269.0008,157.4767,266.9163,158.3415,265.2542,158.4166,263.118,157.3349,261.1023,156.6283,259.5724,155.1936,258.7699,153.5511,258.2939,152.2433,257.8277,150.5351,257.0709,149.0651,257.6525,147.6298,258.162,146.0576,260.074,144.8142,261.4192,143.2008,263.0843,142.665,265.0637,142.2037,267.6021,142.4778,268.9924,143.1335,270.6089,143.4307,272.5743,145.4443,273.2595,147.5701,273.5571,149.0206,273.22,151.4108" style="stroke:#181818;stroke-width:0.5;"/><path d="M265.5,158 L265.6868,158 L265.1317,163.4 L265.6718,168.8 L265.8553,174.2 L264.8659,179.6 L265.5,185 M252.5,166 L252.5,165.9309 L257.7,165.6209 L262.9,165.6591 L268.1,165.9394 L273.3,165.3854 L278.5,166 M265.5,185 L265.8719,185.3223 L262.4766,187.6331 L260.1672,190.8849 L257.9901,194.2515 L255.0424,196.9501 L252.5,200 M265.5,185 L265.5458,185.0397 L268.0785,187.9814 L270.8199,191.1039 L273.4606,194.1392 L276.2934,197.341 L278.5,200 " fill="none" style="stroke:#181818;stroke-width:0.5;"/><text fill="#000000" font-family="sans-serif" font-size="14" lengthAdjust="spacing" textLength="151" x="190" y="214.4951">Создатель комнаты</text></g><!--MD5=[fd01210c268511dfcaf9d6c7c067c6b3]
entity viewer--><g id="elem_viewer"><polygon fill="#F1F1F1" points="832.5442,15.9459,831.3715,17.5482,829.9845,19.8951,828.0008,21.4767,825.9163,22.3415,824.2542,22.4166,822.118,21.3349,820.1023,20.6283,818.5724,19.1936,817.7699,17.5511,817.2939,16.2433,816.8277,14.5351,816.0709,13.0651,816.6525,11.6298,817.162,10.0576,819.074,8.8142,820.4192,7.2008,822.0843,6.665,824.0637,6.2037,826.6021,6.4778,827.9924,7.1335,829.6089,7.4307,831.5743,9.4443,832.2595,11.5701,832.5571,13.0206,832.22,15.4108" style="stroke:#181818;stroke-width:0.5;"/><path d="M824.5,22 L824.6868,22 L824.1317,27.4 L824.6718,32.8 L824.8553,38.2 L823.8659,43.6 L824.5,49 M811.5,30 L811.5,29.9309 L816.7,29.6209 L821.9,29.6591 L827.1,29.9394 L832.3,29.3854 L837.5,30 M824.5,49 L824.8719,49.3223 L821.4766,51.6331 L819.1672,54.8849 L816.9901,58.2515 L814.0424,60.9501 L811.5,64 M824.5,49 L824.5458,49.0397 L827.0785,51.9814 L829.8199,55.1039 L832.4606,58.1392 L835.2934,61.341 L837.5,64 " fill="none" style="stroke:#181818;stroke-width:0.5;"/><text fill="#000000" font-family="sans-serif" font-size="14" lengthAdjust="spacing" textLength="64" x="792.5" y="78.4951">Зритель</text></g><g id="elem_close_room"><polygon fill="#F1F1F1" points="331.9201,318.4937,330.2074,321.8015,323.6704,324.3184,316.1698,326.8259,309.9778,329.7383,298.2953,331.3988,287.6227,333.1832,275.0961,334.3345,261.2947,334.8861,249.3085,335.4516,233.0515,334.562,222.6775,334.4631,209.2604,333.0639,196.3509,331.1332,187.3052,329.4111,178.2166,326.9987,171.4168,324.4358,165.7877,321.4925,162.5088,318.4786,160.6611,315.2403,161.5214,312.1382,164.643,309.1516,170.7617,306.5394,177.3128,303.8154,185.5038,301.3588,198.987,300.1088,207.2572,297.7767,221.9144,297.1112,233.0969,295.9624,248.8597,296.258,261.2954,296.2763,272.5241,296.5701,286.7591,298.1557,297.877,299.678,307.5728,301.5483,316.1319,303.84,324.1212,306.6741,328.6036,309.356,333.7092,312.7864,332.8059,315.3974" style="stroke:#181818;stroke-width:0.5;"/><text fill="#000000" font-family="sans-serif" font-size="14" lengthAdjust="spacing" textLength="132" x="181.728" y="318.3923">Закрыть комнату</text></g><g id="elem_create_room"><polygon fill="#F1F1F1" points="536.698,318.2937,535.0026,321.5721,528.5319,324.0666,521.1073,326.5518,514.978,329.4383,503.414,331.0841,492.8496,332.8526,480.4499,333.9937,466.7883,334.5404,454.9237,335.1008,438.8314,334.2192,428.5625,334.1211,415.2814,332.7344,402.5027,330.8208,393.5488,329.1141,384.5522,326.7231,377.8214,324.183,372.2493,321.2658,369.0036,318.2787,367.1746,315.0693,368.0262,311.9948,371.1162,309.0347,377.1729,306.4457,383.6576,303.7459,391.7656,301.3111,405.1122,300.0722,413.2985,297.7609,427.8072,297.1013,438.8763,295.9627,454.4794,296.2557,466.7891,296.2739,477.9039,296.565,491.9947,298.1366,502.9999,299.6453,512.5974,301.499,521.0698,303.7703,528.9781,306.5792,533.4151,309.2372,538.4689,312.6371,537.5748,315.2249" style="stroke:#181818;stroke-width:0.5;"/><text fill="#000000" font-family="sans-serif" font-size="14" lengthAdjust="spacing" textLength="130" x="388.3592" y="318.2185">Создать комнату</text></g><g id="elem_create_public_room"><polygon fill="#F1F1F1" points="433.9676,445.2084,431.4984,449.7978,422.0743,453.2898,411.2609,456.7688,402.3341,460.8095,385.492,463.1135,370.1057,465.5891,352.0466,467.1864,332.1495,467.9518,314.8695,468.7363,291.4324,467.5021,276.4765,467.3649,257.1336,465.4237,238.5224,462.7449,225.4816,460.3557,212.3789,457.0085,202.5759,453.4527,194.4606,449.3691,189.7335,445.1875,187.0697,440.6946,188.31,436.3907,192.8103,432.247,201.6314,428.6227,211.0759,424.8433,222.8846,421.4349,242.3229,419.7006,254.2456,416.465,275.3764,415.5417,291.4977,413.9478,314.2224,414.358,332.1506,414.3834,348.3385,414.791,368.8607,416.9909,384.8888,419.103,398.8669,421.6979,411.2063,424.8775,422.7242,428.8096,429.1863,432.5305,436.5468,437.2899,435.2446,440.9125" style="stroke:#181818;stroke-width:0.5;"/><text fill="#000000" font-family="sans-serif" font-size="14" lengthAdjust="spacing" textLength="215" x="205.0909" y="443.9649">Создать публичную комнату</text></g><g id="elem_create_secret_room"><polygon fill="#F1F1F1" points="717.834,444.9252,715.3461,449.5464,705.8501,453.0627,694.9543,456.5659,685.9596,460.6346,668.9891,462.9546,653.4856,465.4474,635.2889,467.0558,615.2401,467.8265,597.8286,468.6165,574.2128,467.3737,559.143,467.2355,539.6527,465.2808,520.8997,462.5834,507.7596,460.1776,494.557,456.8072,484.6793,453.2267,476.5022,449.1147,471.7391,444.9041,469.055,440.38,470.3047,436.0462,474.8393,431.8737,483.7277,428.2242,493.2441,424.4186,505.1427,420.9865,524.7291,419.2402,536.7427,415.9822,558.0346,415.0524,574.2787,413.4475,597.1765,413.8605,615.2413,413.8861,631.5525,414.2965,652.2311,416.5117,668.3814,418.6384,682.4659,421.2513,694.8994,424.4531,706.505,428.4125,713.0164,432.1592,720.4329,436.9517,719.1208,440.5994" style="stroke:#181818;stroke-width:0.5;"/><text fill="#000000" font-family="sans-serif" font-size="14" lengthAdjust="spacing" textLength="217" x="487.0326" y="443.6532">Создать секретную комнату</text></g><g id="elem_leave_room"><polygon fill="#F1F1F1" points="588.4921,182.6988,586.7182,186.1103,579.9476,188.7061,572.1789,191.2922,565.7657,194.2958,553.6658,196.0085,542.6118,197.8487,529.6376,199.0361,515.3429,199.605,502.9285,200.1882,486.0905,199.2708,475.3458,199.1688,461.4493,197.7258,448.0784,195.7345,438.7095,193.9585,429.2961,191.4704,422.2533,188.8271,416.4231,185.7916,413.027,182.6832,411.1132,179.3435,412.0043,176.1441,415.2374,173.0639,421.5748,170.3697,428.36,167.5603,436.8437,165.0267,450.8088,163.7376,459.3744,161.3324,474.5554,160.646,486.1375,159.4612,502.4636,159.7661,515.3437,159.785,526.9736,160.088,541.7173,161.7233,553.2325,163.2933,563.2747,165.2222,572.1397,167.5858,580.4145,170.5087,585.0571,173.2746,590.3451,176.8125,589.4096,179.5054" style="stroke:#181818;stroke-width:0.5;"/><text fill="#000000" font-family="sans-serif" font-size="14" lengthAdjust="spacing" textLength="139" x="431.7915" y="182.505">Выйти из комнаты</text></g><g id="elem_connect_to_room"><polygon fill="#F1F1F1" points="790.2862,182.3975,788.6253,185.6176,782.2858,188.0678,775.0118,190.5089,769.0069,193.3441,757.6774,194.9606,747.3272,196.6977,735.1791,197.8185,721.7946,198.3555,710.1707,198.906,694.4048,198.04,684.3442,197.9437,671.3325,196.5816,658.813,194.702,650.0407,193.0256,641.2266,190.6771,634.6323,188.1821,629.1733,185.3168,625.9934,182.3828,624.2015,179.2304,625.0358,176.2105,628.0631,173.3031,633.997,170.76,640.3502,168.1082,648.2937,165.7167,661.3695,164.4999,669.3898,162.2296,683.6042,161.5817,694.4488,160.4634,709.7354,160.7512,721.7954,160.769,732.6848,161.055,746.4897,162.5986,757.2717,164.0805,766.6745,165.9012,774.9751,168.1323,782.7229,170.8912,787.07,173.502,792.0213,176.8415,791.1453,179.3833" style="stroke:#181818;stroke-width:0.5;"/><text fill="#000000" font-family="sans-serif" font-size="14" lengthAdjust="spacing" textLength="126" x="645.0914" y="182.5594">Войти в комнату</text></g><g id="elem_control_stream"><polygon fill="#F1F1F1" points="1051.5708,183.3399,1049.3073,187.5809,1040.6678,190.8079,1030.7548,194.0229,1022.5713,197.757,1007.1315,199.886,993.0263,202.1738,976.4708,203.6499,958.2304,204.3572,942.3893,205.0822,920.9036,203.9416,907.1929,203.8148,889.4606,202.0209,872.399,199.5454,860.4441,197.3376,848.4323,194.2444,839.4455,190.9585,832.0059,187.1848,827.6724,183.3205,825.2304,179.1687,826.3674,175.1914,830.493,171.3622,838.5797,168.0129,847.2378,164.5203,858.0632,161.3706,875.883,159.768,886.8131,156.778,906.1845,155.9247,920.9635,154.4518,941.796,154.8308,958.2314,154.8543,973.0715,155.2309,991.8849,157.264,1006.5785,159.2157,1019.3928,161.6136,1030.7048,164.552,1041.2636,168.1857,1047.1877,171.6242,1053.9353,176.0223,1052.7415,179.37" style="stroke:#181818;stroke-width:0.5;"/><text fill="#000000" font-family="sans-serif" font-size="14" lengthAdjust="spacing" textLength="193" x="843.8004" y="182.4068">Управление трансляцией</text></g><g id="elem_play_pause_stream"><polygon fill="#F1F1F1" points="705.9313,317.6403,704.5965,320.308,699.5017,322.3378,693.6559,324.36,688.8301,326.7087,679.7251,328.0479,671.4071,329.4869,661.6442,330.4154,650.8877,330.8603,641.546,331.3163,628.8757,330.5989,620.7905,330.5191,610.3336,329.3908,600.2722,327.8337,593.2223,326.4449,586.1388,324.4993,580.8392,322.4325,576.452,320.0588,573.8965,317.6282,572.4565,315.0167,573.127,312.5149,575.5599,310.1063,580.3286,307.9996,585.4344,305.8028,591.8183,303.8217,602.3267,302.8136,608.7723,300.9328,620.1958,300.3961,628.9111,299.4697,641.1962,299.7081,650.8883,299.7229,659.6396,299.9598,670.7341,301.2385,679.399,302.4662,686.9557,303.9745,693.6264,305.8227,699.8531,308.1083,703.3466,310.2711,707.3257,313.0376,706.6217,315.1433" style="stroke:#181818;stroke-width:0.5;"/><text fill="#000000" font-family="sans-serif" font-size="14" lengthAdjust="spacing" textLength="84" x="595.3142" y="319.0104">Плей/Пауза</text></g><g id="elem_rewind_stream"><polygon fill="#F1F1F1" points="874.9313,317.6403,873.5965,320.308,868.5017,322.3378,862.6559,324.36,857.8301,326.7087,848.7251,328.0479,840.4071,329.4869,830.6442,330.4154,819.8877,330.8603,810.546,331.3163,797.8757,330.5989,789.7905,330.5191,779.3336,329.3908,769.2722,327.8337,762.2223,326.4449,755.1388,324.4993,749.8392,322.4325,745.452,320.0588,742.8965,317.6282,741.4565,315.0167,742.127,312.5149,744.5599,310.1063,749.3286,307.9996,754.4344,305.8028,760.8183,303.8217,771.3267,302.8136,777.7723,300.9328,789.1958,300.3961,797.9111,299.4697,810.1962,299.7081,819.8883,299.7229,828.6396,299.9598,839.7341,301.2385,848.399,302.4662,855.9557,303.9745,862.6264,305.8227,868.8531,308.1083,872.3466,310.2711,876.3257,313.0376,875.6217,315.1433" style="stroke:#181818;stroke-width:0.5;"/><text fill="#000000" font-family="sans-serif" font-size="14" lengthAdjust="spacing" textLength="84" x="764.3142" y="319.0104">Перемотка</text></g><g id="elem_sound_stream"><polygon fill="#F1F1F1" points="1146.7368,319.5204,1144.3708,323.935,1135.3402,327.2941,1124.9784,330.6407,1116.4245,334.5276,1100.2857,336.7438,1085.542,339.1252,1068.2371,340.6618,1049.171,341.398,1032.6127,342.1527,1010.1544,340.9654,995.8231,340.8334,977.2881,338.9661,959.4542,336.3893,946.958,334.091,934.4025,330.8713,925.0089,327.4508,917.2325,323.5227,912.7028,319.5002,910.1503,315.1784,911.3388,311.0383,915.6512,307.0524,924.1039,303.566,933.1539,299.9305,944.4694,296.6519,963.0959,294.9836,974.5207,291.8712,994.769,290.983,1010.217,289.4498,1031.9927,289.8443,1049.1721,289.8688,1064.6839,290.2609,1084.349,292.3771,1099.7078,294.4087,1113.1021,296.9048,1124.9261,299.9634,1135.9629,303.7458,1142.1552,307.3251,1149.2083,311.9033,1147.9605,315.388" style="stroke:#181818;stroke-width:0.5;"/><text fill="#000000" font-family="sans-serif" font-size="14" lengthAdjust="spacing" textLength="204" x="928.4293" y="318.4325">Выставление уровня звука</text></g><g id="elem_control_own_stream"><polygon fill="#F1F1F1" points="1401.8796,183.5595,1399.4668,188.0535,1390.2576,191.4729,1379.6909,194.8796,1370.9678,198.8363,1354.5098,201.0923,1339.4745,203.5164,1321.8273,205.0806,1302.3841,205.83,1285.4983,206.5983,1262.5958,205.3897,1247.9811,205.2553,1229.0794,203.3545,1210.8928,200.7314,1198.1495,198.3918,1185.3456,195.1143,1175.7662,191.6324,1167.836,187.6337,1163.2168,183.539,1160.6137,179.1396,1161.8257,174.9251,1166.2234,170.8676,1174.8433,167.3186,1184.0723,163.6178,1195.6116,160.2803,1214.6065,158.5821,1226.2573,155.4138,1246.9061,154.5096,1262.6597,152.9489,1284.866,153.3505,1302.3852,153.3754,1318.2038,153.7745,1338.2579,155.9288,1353.9204,157.9969,1367.5796,160.5378,1379.6376,163.6514,1390.8927,167.5017,1397.2074,171.1452,1404.4,175.8057,1403.1275,179.353" style="stroke:#181818;stroke-width:0.5;"/><text fill="#000000" font-family="sans-serif" font-size="14" lengthAdjust="spacing" textLength="209" x="1178.7717" y="182.401">Управление своим потоком</text></g><g id="elem_sound_own_stream"><polygon fill="#F1F1F1" points="1418.7368,319.5204,1416.3708,323.935,1407.3402,327.2941,1396.9784,330.6407,1388.4245,334.5276,1372.2857,336.7438,1357.542,339.1252,1340.2371,340.6618,1321.171,341.398,1304.6127,342.1527,1282.1544,340.9654,1267.8231,340.8334,1249.2881,338.9661,1231.4542,336.3893,1218.958,334.091,1206.4025,330.8713,1197.0089,327.4508,1189.2325,323.5227,1184.7028,319.5002,1182.1503,315.1784,1183.3388,311.0383,1187.6512,307.0524,1196.1039,303.566,1205.1539,299.9305,1216.4694,296.6519,1235.0959,294.9836,1246.5207,291.8712,1266.769,290.983,1282.217,289.4498,1303.9927,289.8443,1321.1721,289.8688,1336.6839,290.2609,1356.349,292.3771,1371.7078,294.4087,1385.1021,296.9048,1396.9261,299.9634,1407.9629,303.7458,1414.1552,307.3251,1421.2083,311.9033,1419.9605,315.388" style="stroke:#181818;stroke-width:0.5;"/><text fill="#000000" font-family="sans-serif" font-size="14" lengthAdjust="spacing" textLength="204" x="1200.4293" y="318.4325">Выставление уровня звука</text></g><g id="elem_on_off_own_stream"><polygon fill="#F1F1F1" points="1762.3867,320.3406,1759.2985,325.9788,1747.5115,330.2689,1733.9869,334.543,1722.822,339.5071,1701.7572,342.3376,1682.5132,345.379,1659.9262,347.3414,1635.0404,348.2816,1613.428,349.2455,1584.1146,347.7292,1565.4089,347.5606,1541.2163,345.1758,1517.9389,341.8848,1501.6285,338.9495,1485.2405,334.8374,1472.9797,330.469,1462.8297,325.4521,1456.9174,320.3149,1453.5857,314.7953,1455.137,309.5077,1460.7656,304.4171,1471.7984,299.9644,1483.6109,295.3213,1498.3802,291.134,1522.6922,289.0034,1537.6042,285.0284,1564.0331,283.894,1584.1964,281.9359,1612.6186,282.4398,1635.0418,282.471,1655.2884,282.9717,1680.956,285.6745,1701.0028,288.2692,1718.4855,291.4571,1733.9187,295.3634,1748.3243,300.1941,1756.4067,304.7654,1765.6127,310.6125,1763.984,315.063" style="stroke:#181818;stroke-width:0.5;"/><text fill="#000000" font-family="sans-serif" font-size="14" lengthAdjust="spacing" textLength="280" x="1470.5781" y="318.1623">Включение/отключение видео/аудио</text></g><g id="elem_send_message"><polygon fill="#F1F1F1" points="1683.535,183.6001,1681.0753,188.1736,1671.687,191.6535,1660.9148,195.1204,1652.022,199.1471,1635.244,201.443,1619.9163,203.9101,1601.9259,205.5019,1582.1045,206.2646,1564.8904,207.0464,1541.5425,205.8165,1526.6435,205.6797,1507.3743,203.7453,1488.8339,201.0758,1475.8428,198.6948,1462.7899,195.3593,1453.0242,191.8158,1444.9398,187.7463,1440.2307,183.5793,1437.5771,179.102,1438.8126,174.813,1443.2958,170.6837,1452.0833,167.0719,1461.4919,163.3057,1473.2556,159.9091,1492.6199,158.1809,1504.4972,154.9565,1525.5476,154.0363,1541.6076,152.448,1564.2457,152.8567,1582.1056,152.8821,1598.2319,153.2882,1618.676,155.4806,1634.6431,157.5853,1648.568,160.1711,1660.8604,163.3398,1672.3344,167.2582,1678.772,170.9662,1686.1045,175.7091,1684.8072,179.3192" style="stroke:#181818;stroke-width:0.5;"/><text fill="#000000" font-family="sans-serif" font-size="14" lengthAdjust="spacing" textLength="214" x="1455.6205" y="182.3708">Отправить сообщение в чат</text></g><!--MD5=[9faa7bf35b08f0f949cfd5b36e954103]
reverse link creator to admin--><g id="link_creator_admin"><path d="M193.586,228.924 L193.7425,229.1565 L185.2986,233.8386 L177.7722,239.8833 L169.947,245.4844 L161.1392,249.6261 L153.6337,255.7019 L145.395,260.689 L137.4482,266.1093 L129.7041,271.8308 L121.776,277.279 " fill="none" style="stroke:#181818;stroke-width:1.0;"/><polygon fill="none" points="189.832,223.013,189.8497,223.0808,193.897,221.8066,198.0483,220.9297,202.1657,219.9235,206.1718,218.4917,210.332,217.649,210.3112,217.6335,207.6821,220.9593,205.1576,224.3633,202.7058,227.8216,200.0034,231.0927,197.652,234.626,197.8051,234.7291,195.9137,232.1861,194.4693,229.944,193.0794,227.7386,191.3723,225.3196,189.832,223.013" style="stroke:#181818;stroke-width:1.0;"/></g><!--MD5=[5c91bf9bed4686b55ca55016b7a7c9d4]
reverse link viewer to creator--><g id="link_viewer_creator"><path d="M772.516,55.218 L772.5742,55.4921 L763.1263,56.6462 L754.0196,59.4072 L744.8017,61.645 L735.2186,62.1618 L726.1196,64.9595 L716.7481,66.4732 L707.485,68.4978 L698.3162,70.9666 L698.2969,70.8778 L689.0641,72.0349 L680.3606,75.6261 L670.9689,76.0526 L662.0352,78.5852 L653.035,80.8119 L653.1597,81.3742 L643.1943,82.8772 L633.4229,85.2545 L623.5781,87.301 L613.823,89.7519 L603.9556,91.6964 L604.0262,92.0073 L593.8014,94.8014 L583.4995,97.2558 L573.1749,99.61 L562.7225,101.4013 L552.3203,103.4136 L552.4607,104.0156 L541.9431,106.7943 L530.9224,107.4147 L520.7562,111.701 L509.8713,112.9037 L499.3712,115.7575 L499.5378,116.4495 L488.6126,117.6686 L478.1415,120.7744 L467.7901,124.3773 L456.9393,125.9057 L446.3504,128.5217 L446.3845,128.6579 L436.0899,131.5553 L425.745,134.2514 L415.2389,136.3036 L404.9631,139.2758 L394.5,141.5 L394.4348,141.2541 L389.1937,143.0374 L383.8851,144.5659 L378.5346,145.9366 L373.2151,147.4242 L367.8066,148.576 L367.7489,148.3692 L362.371,149.7924 L357.0169,151.3012 L351.7264,153.0376 L346.3522,154.4743 L341.018,156.054 " fill="none" style="stroke:#181818;stroke-width:1.0;"/><polygon fill="none" points="771.247,48.333,771.2562,48.4025,775.4301,48.7519,779.6579,49.5085,783.8681,50.1325,788.0206,50.3205,792.253,51.112,792.2396,51.0898,788.5487,53.1756,784.9251,55.3733,781.3483,57.6487,777.6102,59.6561,774.098,62.039,774.2787,62.0766,773.3221,59.255,772.8931,56.5432,772.5284,53.8447,771.7892,51.0684,771.247,48.333" style="stroke:#181818;stroke-width:1.0;"/></g><!--MD5=[6bae5dbc81122203359f955e892a60b1]
reverse link create_room to create_secret_room--><g id="link_create_room_create_secret_room"><path d="M477.948,337.763 L478.1319,337.9745 L484.9171,343.7226 L492.7805,350.7104 L500.2927,357.2945 L506.6505,362.5511 L514.5383,369.5671 L521.5648,375.5927 L528.9341,382.0124 L536.5417,388.7062 L543.3281,394.4556 L551.7491,402.0847 L558.0448,407.27 L565.928,414.2806 " fill="none" style="stroke:#181818;stroke-width:1.0;"/><polygon fill="#181818" points="474.148,334.458,474.2115,334.4876,474.856,336.1845,475.8727,338.055,476.7682,339.869,477.2652,341.497,478.3138,343.3825,478.288,343.3807,478.0934,342.2439,478.029,341.1163,478.0553,339.995,477.7694,338.8519,477.9207,337.7393,477.9335,337.9234,479.0347,337.4511,480.1734,337.5163,481.3166,337.647,482.4332,337.3963,483.5639,337.3462,483.5705,337.3679,481.6776,336.7583,479.815,336.2478,477.9377,335.6895,476.0884,335.2223,474.148,334.458" style="stroke:#181818;stroke-width:1.0;"/></g><!--MD5=[75333043c677e3a9f9cd11b97ea323be]
reverse link create_room to create_public_room--><g id="link_create_room_create_public_room"><path d="M429.2,337.784 L429.3846,337.9948 L421.5147,343.7811 L414.7271,350.8031 L407.5871,357.4228 L399.2879,362.719 L392.5251,369.7692 L384.8973,375.832 L377.6138,382.2878 L370.5695,389.0167 L362.7006,394.8043 L356.473,402.4656 L348.1116,407.6908 L341.344,414.7356 " fill="none" style="stroke:#181818;stroke-width:1.0;"/><polygon fill="#181818" points="432.997,334.458,433.0178,334.5249,431.0749,334.9102,429.2538,335.6877,427.393,336.3376,425.4018,336.5673,423.5911,337.3785,423.5894,337.3527,424.7106,337.3114,425.8405,337.4005,426.9763,337.5801,428.0915,337.4475,429.2356,337.7522,429.4198,337.7644,428.9512,338.8673,429.0204,340.0057,429.1551,341.1485,428.9081,342.266,428.8619,343.3967,428.8826,343.4063,429.6793,341.6045,430.57,339.8462,431.4153,338.067,432.3472,336.3277,432.997,334.458" style="stroke:#181818;stroke-width:1.0;"/></g><!--MD5=[29cb8924d4aaa8c8c5574deee02ca22e]
reverse link control_stream to play_pause_stream--><g id="link_control_stream_play_pause_stream"><path d="M887.12,204.343 L887.2343,204.5989 L877.8767,207.8666 L869.1892,212.6344 L860.2835,216.9137 L850.6602,219.5867 L841.9879,224.3886 L832.7803,227.992 L823.7858,232.0724 L814.9393,236.4844 L805.5824,239.7537 L797.2415,245.2974 L787.5797,247.8841 L778.797,252.4387 L770.1214,257.2334 L760.8219,260.6312 L751.8877,264.8467 L742.8153,268.7528 L733.9118,273.037 L724.9268,277.1389 L716.0973,281.5888 L707.1257,285.7208 L698.1122,289.7588 L688.8634,293.2699 L679.959,297.5523 L670.689,301.016 " fill="none" style="stroke:#181818;stroke-width:1.0;"/><polygon fill="#181818" points="891.966,202.178,891.9661,202.2481,889.9959,202.044,888.0266,202.2507,886.057,202.3236,884.0864,201.9567,882.1172,202.1986,882.1079,202.1744,883.1232,202.4697,884.1851,202.887,885.2795,203.3891,886.2621,203.599,887.4012,204.2182,887.5736,204.2841,886.801,205.2,886.5318,206.3083,886.3239,207.4401,885.7588,208.4352,885.3815,209.5023,885.3985,209.5175,886.6905,208.0303,888.0596,206.6123,889.3915,205.161,890.7943,203.7734,891.966,202.178" style="stroke:#181818;stroke-width:1.0;"/></g><!--MD5=[49662ead976910d93288988dbb193b4e]
reverse link control_stream to rewind_stream--><g id="link_control_stream_rewind_stream"><path d="M913.807,207.805 L914.0074,208.0009 L906.495,214.4941 L900.1573,222.1358 L893.4371,229.4035 L885.4588,235.4413 L879.1479,243.1091 L871.8984,249.8593 L865.0224,256.9747 L858.406,264.3439 L850.8948,270.8384 L845.1649,279.0741 L837.1191,285.0459 L830.6144,292.5244 L823.886,299.784 " fill="none" style="stroke:#181818;stroke-width:1.0;"/><polygon fill="#181818" points="917.381,204.148,917.4069,204.2131,915.4995,204.7472,913.7438,205.6629,911.9387,206.4543,909.9711,206.837,908.2285,207.7855,908.2282,207.7596,909.3582,207.6307,910.4897,207.6325,911.6221,207.725,912.7511,207.5047,913.885,207.7226,914.0695,207.7247,913.6875,208.8516,913.8442,209.9845,914.0667,211.1181,913.9067,212.2475,913.9478,213.3791,913.9692,213.387,914.6245,211.5292,915.3769,209.7074,916.0824,207.8682,916.8774,206.0623,917.381,204.148" style="stroke:#181818;stroke-width:1.0;"/></g><!--MD5=[e7ddbb7456c2ca84928066bb16cd9a7a]
reverse link control_stream to sound_stream--><g id="link_control_stream_sound_stream"><path d="M959.501,208.79 L959.7336,208.9462 L964.4553,216.5417 L970.5407,225.0531 L976.1821,233.2662 L980.363,240.4985 L986.4795,249.0307 L991.5063,256.8312 L996.9668,264.9228 L1002.7288,273.2169 L1007.4518,280.8134 L1013.63,289.387 " fill="none" style="stroke:#181818;stroke-width:1.0;"/><polygon fill="#181818" points="956.59,204.457,956.659,204.4691,956.7935,206.3735,957.3326,208.3487,957.74,210.3008,957.7141,212.1771,958.2879,214.1584,958.2625,214.1534,958.3664,213.0208,958.5985,211.9134,958.9197,210.8235,958.9338,209.6733,959.378,208.6076,959.4135,208.7886,960.4477,208.6194,961.5856,208.9789,962.7362,209.4029,963.8131,209.4515,964.9288,209.6976,964.9409,209.7169,963.2554,208.6405,961.625,207.6518,959.9679,206.6207,958.3616,205.6704,956.59,204.457" style="stroke:#181818;stroke-width:1.0;"/></g><!--MD5=[7c19540effc1a17b007f3d02ef1ca058]
reverse link control_own_stream to sound_own_stream--><g id="link_control_own_stream_sound_own_stream"><path d="M1287.85,211.213 L1288.1275,211.2523 L1288.683,220.8682 L1290.8652,230.7147 L1292.5176,240.4861 L1292.4282,250.0105 L1294.6474,259.8622 L1295.567,269.5297 L1297.0037,279.2705 L1298.89,289.075 " fill="none" style="stroke:#181818;stroke-width:1.0;"/><polygon fill="#181818" points="1287.12,206.02,1287.1874,206.0392,1286.448,207.8767,1286.1036,209.8267,1285.6306,211.7401,1284.7346,213.5331,1284.4242,215.4927,1284.4035,215.4772,1284.9902,214.5029,1285.6813,213.607,1286.445,212.7657,1286.9586,211.7364,1287.8225,210.9704,1287.9334,211.1179,1288.6008,211.4821,1289.5918,212.277,1290.6224,213.1245,1291.4232,213.6662,1292.3448,214.3687,1292.3641,214.3808,1291.2908,212.6933,1290.3053,211.0608,1289.2775,209.4018,1288.3305,207.7933,1287.12,206.02" style="stroke:#181818;stroke-width:1.0;"/></g><!--MD5=[016db9ef572f6e723a47f256e10f289e]
reverse link control_own_stream to on_off_own_stream--><g id="link_control_own_stream_on_off_own_stream"><path d="M1343.92,205.257 L1344.0263,205.5163 L1353.0429,208.5702 L1362.6825,213.1441 L1372.1192,217.2231 L1380.8888,219.6742 L1390.5426,224.2828 L1399.6987,227.6768 L1409.0528,231.5542 L1418.5446,235.7676 L1427.5619,238.823 L1437.5237,244.1834 L1446.2575,246.5471 L1455.8086,250.905 L1465.4593,255.5063 L1474.53,258.6918 L1483.9402,262.7062 L1493.2219,266.4069 L1502.6607,270.4909 L1512.0238,274.39 L1521.5314,278.6419 L1530.9069,282.5716 L1539.9,285.568 " fill="none" style="stroke:#181818;stroke-width:1.0;"/><polygon fill="#181818" points="1338.97,203.231,1339.0206,203.2794,1340.2314,204.5593,1341.739,206.123,1343.1499,207.5943,1344.243,208.7617,1345.7761,210.3498,1345.7522,210.3398,1345.2087,209.2511,1344.7858,208.2127,1344.4466,207.2093,1343.8188,206.0853,1343.5953,205.1302,1343.6664,205.3005,1344.5582,204.5002,1345.6577,204.1971,1346.7825,203.9546,1347.7599,203.3592,1348.8148,202.9494,1348.8155,202.9721,1346.8456,202.9951,1344.8786,203.1215,1342.9102,203.198,1340.9445,203.3698,1338.97,203.231" style="stroke:#181818;stroke-width:1.0;"/></g><!--MD5=[a378278c781057753cc049b1a15fb9b5]
link creator to close_room--><g id="link_creator_close_room"><path d="M260.486,217.826 L260.7637,217.8633 L258.6282,227.5066 L258.1209,237.3686 L257.0834,247.1593 L254.3023,256.7159 L253.8321,266.5828 L252.0609,276.275 L250.8075,286.0368 L250.004,295.859 " fill="none" style="stroke:#181818;stroke-width:1.0;"/></g><!--MD5=[407e7ef255bdf2da7c63bf48e283c769]
link creator to create_room--><g id="link_creator_create_room"><path d="M317.868,217.826 L318.0307,218.0542 L325.4586,223.015 L333.84,229.3136 L341.911,235.1765 L348.9608,239.6069 L357.3639,245.9359 L365.0052,251.1961 L372.9497,256.8816 L381.105,262.8629 L388.5339,267.8251 L397.4086,274.8157 L404.4036,279.1691 L412.6495,285.2776 L421.0481,291.6001 L428.625,296.77 " fill="none" style="stroke:#181818;stroke-width:1.0;"/></g><!--MD5=[dee4a09adb663d3e4954c748df05ff7a]
link viewer to control_stream--><g id="link_viewer_control_stream"><path d="M856.505,81.471 L856.7169,81.6544 L862.4289,88.4351 L869.383,96.2911 L875.9327,103.7969 L881.1522,110.1512 L888.1347,118.0317 L894.1247,125.053 L900.5096,132.4162 L907.1691,140.0171 L912.8824,146.799 L919.921,154.728 " fill="none" style="stroke:#181818;stroke-width:1.0;"/></g><!--MD5=[4a0ca28a5718f5b9b45a42afd2f738ec]
link viewer to leave_room--><g id="link_viewer_leave_room"><path d="M792.349,57.838 L792.4564,58.0969 L782.8672,61.1736 L773.9075,65.7677 L764.7429,69.8677 L754.9041,72.3427 L745.9587,76.9714 L736.5104,80.3876 L727.2623,84.2864 L718.1533,88.5206 L708.5648,91.5989 L699.9308,96.978 L690.0558,99.3657 L681.0066,103.7442 L672.0582,108.3656 L662.5236,111.5738 L653.3322,115.6093 L644.0109,119.3317 L634.8483,123.4367 L625.6092,127.3572 L616.5161,131.6298 L607.2896,135.5807 L598.0237,139.4367 L588.5367,142.7595 L579.3733,146.8627 L570.2251,151.0024 L560.2277,153.0952 L551.6728,158.6648 L542.056,161.675 " fill="none" style="stroke:#181818;stroke-width:1.0;"/></g><!--MD5=[c2a80293656af940272441ff6f05e159]
link viewer to connect_to_room--><g id="link_viewer_connect_to_room"><path d="M792.495,81.471 L792.7069,81.6544 L785.2368,89.0114 L779.0088,97.4437 L772.3764,105.5258 L764.4138,112.4564 L758.2142,120.9132 L751.0221,128.5108 L744.2249,136.4503 L737.7023,144.6275 L730.2335,151.9857 L724.09,160.491 " fill="none" style="stroke:#181818;stroke-width:1.0;"/></g><!--MD5=[c75a5797751f3751bbcea4c71d6ce3fd]
link viewer to control_own_stream--><g id="link_viewer_control_own_stream"><path d="M856.776,53.923 L856.8545,54.192 L866.2448,56.2022 L876.0955,59.7894 L885.7962,62.863 L895.0039,64.2479 L904.8651,67.871 L914.3584,70.234 L923.9981,73.0986 L933.7395,76.3117 L943.1303,78.3235 L953.2191,82.7265 L962.4003,84.0207 L972.1856,87.3837 L982.0445,90.9992 L991.4747,93.146 L1001.1558,96.1526 L1010.742,98.8339 L1020.4443,101.9128 L1030.0905,104.7998 L1039.8437,108.0529 L1049.4992,110.9716 L1059.1259,113.7916 L1068.5908,116.0576 L1078.2925,119.1345 L1088.0053,122.2495 L1097.0971,123.2371 L1107.2437,127.8381 L1116.503,129.3996 L1126.4369,133.2719 L1135.6761,134.7645 L1145.4591,138.1199 L1155.3854,141.9663 L1164.7137,143.7642 L1174.3949,146.7708 L1184.1057,149.879 L1193.7583,152.7878 L1203.2249,155.0595 L1212.85,157.874 " fill="none" style="stroke:#181818;stroke-width:1.0;"/></g><!--MD5=[de5526be42d6b57f3a70e858a1b61a01]
link viewer to send_message--><g id="link_viewer_send_message"><path d="M856.793,48.609 L856.8053,48.7016 L865.0446,49.5228 L873.3558,50.8868 L881.6436,52.0741 L889.8544,52.6801 L898.1718,54.0907 L898.1576,53.9881 L907.241,54.7874 L916.3957,56.1043 L925.6,57.7808 L934.6334,58.2177 L944.0068,61.1222 L953.053,61.651 L952.9332,60.8192 L962.4187,62.7436 L971.9416,64.9283 L981.2466,65.5986 L990.6791,67.1555 L1000.0634,68.3769 L1009.5067,70.0083 L1018.8761,71.1263 L1018.8918,71.2314 L1026.1574,72.4647 L1033.4059,73.5831 L1040.6494,74.6676 L1047.8644,75.5619 L1055.0907,76.5309 L1055.1219,76.7345 L1062.7359,78.0038 L1070.238,78.5429 L1077.9302,80.3222 L1085.4626,81.0582 L1093.0805,82.3529 L1093.1174,82.5872 L1100.9352,83.3793 L1108.8538,84.8104 L1116.7988,86.4098 L1124.6332,87.3066 L1132.5255,88.5718 L1132.533,88.618 L1140.6657,90.0394 L1148.7873,91.3925 L1156.8733,92.5273 L1165.0101,93.9741 L1173.1057,95.1672 L1173.0635,94.9163 L1181.4056,96.6821 L1189.7041,98.188 L1197.9755,99.5329 L1206.2669,100.997 L1214.5009,102.1186 L1214.4641,101.9071 L1222.8292,103.2904 L1231.2096,104.7613 L1239.6305,106.465 L1247.998,107.8621 L1256.391,109.4055 L1256.4449,109.7036 L1264.7902,110.8496 L1273.1899,112.2963 L1281.6481,114.0666 L1289.9904,115.1956 L1298.4561,117.0076 L1298.4134,116.7809 L1306.8935,118.8704 L1315.2599,120.3566 L1323.6685,122.0665 L1331.9655,123.1845 L1340.376,124.9044 L1340.4034,125.0436 L1348.7177,126.796 L1356.9173,127.9667 L1365.2406,129.7651 L1373.5506,131.4961 L1381.8307,133.0753 L1381.8894,133.359 L1389.9641,134.7584 L1398.1401,136.6465 L1406.1823,137.8891 L1414.3051,139.5203 L1422.5,141.5 L1422.5485,141.7185 L1425.766,141.9291 L1429.219,143.2011 L1432.5249,143.8101 L1435.8142,144.3444 L1439.175,145.2008 L1439.1386,145.0478 L1442.6127,146.2053 L1445.9252,146.6837 L1449.4073,147.8752 L1452.6802,148.1865 L1456.1275,149.2316 L1456.1942,149.4978 L1459.5546,150.2859 L1462.9035,151.0283 L1466.2569,151.7885 L1469.705,152.9269 L1473.0013,153.4592 L1473.0701,153.723 L1476.308,154.3901 L1479.6069,155.2908 L1482.8499,155.9776 L1486.2327,157.1999 L1489.44,157.75 " fill="none" style="stroke:#181818;stroke-width:1.0;"/></g><!--MD5=[45b107d5293a78afefcc80c1ede1fc74]
@startuml
skinparam handwritten true

actor Администратор as admin
actor "Создатель комнаты" as creator
actor "Зритель" as viewer


"Закрыть комнату" as (close_room)
"Создать комнату" as (create_room)
"Создать публичную комнату" as (create_public_room)
"Создать секретную комнату" as (create_secret_room)
"Выйти из комнаты" as (leave_room)
"Войти в комнату" as (connect_to_room)
"Управление трансляцией" as (control_stream)
"Плей/Пауза" as (play_pause_stream)
"Перемотка" as (rewind_stream)
"Выставление уровня звука" as (sound_stream)
"Управление своим потоком" as (control_own_stream)
"Выставление уровня звука" as (sound_own_stream)
"Включение/отключение видео/аудио" as (on_off_own_stream)
"Отправить сообщение в чат" as (send_message)

creator <|- - admin
viewer <|- - creator

(create_room) <- - (create_secret_room)
(create_room) <- - (create_public_room)
(control_stream) <- - (play_pause_stream)
(control_stream) <- - (rewind_stream)
(control_stream) <- - (sound_stream)
(control_own_stream) <- - (sound_own_stream)
(control_own_stream) <- - (on_off_own_stream)


creator - - (close_room)
creator - - (create_room)
viewer - - (control_stream)
viewer - - (leave_room)
viewer - - (connect_to_room)
viewer - - (control_own_stream)
viewer - - (send_message)
@enduml

PlantUML version 1.2022.4beta2(Unknown compile time)
(GPL source distribution)
Java Runtime: Java(TM) SE Runtime Environment
JVM: Java HotSpot(TM) 64-Bit Server VM
Default Encoding: UTF-8
Language: en
Country: US
--></g></svg>